<svg enable-background="new 0 0 41 26" viewBox="0 0 41 26" xmlns="http://www.w3.org/2000/svg"><path d="m39.9 4.3-.2-.1-.2-.3-.1-.2-.2.1-.2-.1v-.3-.4l-.1-.6-.2-.3-.2.1-.3.2-.3-.2-.2.1v.6l-.2.2.1.6-.1.5-.1.4-.1.1-.4.1.1.2v.1l-1.2.2h-.5l-.4.1-.3.1-.5.6v.4l.1.5h-.3l-.2.2-.3.1h-.5l-.6.1v.3l.2.3-.2.2-.2.3-.5.4-.2.1-.6.4-.2.1-.3.1-.1-.1h-.2-.3-.2v-.2l.2-.3.1-.3.1-.1.1-.2.3-.3-.1-.2-.1-.2-.1-.2-.1-.3-.1-.1-.3.1-.2.1v.2l-.1.1h-.1v-.1l.2-.5-.1-.8-.1-.1-.3-.1-.2-.2h-.3l-.2.2-.1.3-.2.3-.1-.1-.2.3-.2.5-.1.5.2.4.1.5v.4l-.2.4-.1.2-.3.1-.2-.1-.2-.4v-.3-.1l-.1-.3v-.5l.1-.4v-.3l.1-.4.1-.3.1-.3-.1.1-.2.3-.2.3v-.2l.1-.3.1-.4.1-.3h.1l.3.2.1-.2.3-.1.2-.2h.3l.4.2.2-.2h.4l.1-.1h-.2-.2l-.2-.1-.1-.1h-.3v-.3l-.2-.1h-.1l-.3.1h-.1l-.2.1-.2.1h-.5l-.2-.2h-.1-.3l-.1-.1.1-.2.2-.1v-.2l-.2.1-.4.3-.3.3-.3.2-.3.1-.3-.1-.1-.2-.1.1h-.2l-.2.1h-.3-.1l.3-.3.2-.2.5-.4.6-.3h-.1-.4-.8l-.1-.1-.5-.2.2-.2h-.7v.2l-.2-.1h-.2l-.3-.1-.1-.2-.1-.4h-.1v.3h-.1-.8-.5-1-1.1l-1.1-.1-1.1-.1-1.7-.2-1.4-.1-1.2-.2-1.2-.3-1-.2-1-.1-.5-.1-.5-.2-1-.3-.7-.1-1-.3-.2.1v.3l-.1.1-.1.2v.1h.1v.2.2l-.1.2-.1.2h-.2v-.1-.1-.1l.2-.3.2-.2v-.1-.1h-.4v-.1h-.3l-.4-.4-.3.4.1.5v.4l.1.1-.1.3v.3l.2.2-.1-.1-.2.2-.2.1v.3l-.3.5v.2l.1.1-.2.2-.1.1v.3l-.1.3-.2.1.1.1-.3.1v.3l-.1.2.1.1-.1.1v.3l.1.2-.1.1.1.2v.1l-.5.6-.1.2v.4l.1.2v.5.5l.1.4.2.3v.5h.3v-.1l.1.1v.1.1h-.1l-.1.2.2.2.2.4-.1.2-.1.1.2.5.1.2.1.4.1.3v.3l-.1.2v.1l.3.1.1.2h.2.1l.1.1.1.2.1.2h.2l.2.1.1.1.1.2.2.4h.2v.1l.1.2v.3.2l.2.2h.2.2l.5.1h.4.3l.2-.1v.4l1 .7.5.3.6.4 1.9.2.6.1v-.3l1.3.1.3.2.4.4.1.2.4.3v.2l.3.4.1.4.2.2.4.3.3.2.2-.1.1-.1.1-.4.3-.1.4.1.4.1.2.2.3.2.2.2v.2l.2.2v.3l.1.2.1.1.2.2.1.3.2.4.2.4.4.3.3.1.5.1.5.1-.1-.1v-.2l-.1-.3-.1-.2.1-.2-.1-.2h-.2v-.1l.2-.1.1-.2h.2l.1-.1v-.1l.2-.1.4-.1v-.1l-.1-.1-.1-.1h.2.3l.3-.2.4-.2.2-.3.1-.1-.1-.2.2-.1v.1l.2.1.3-.2h.2l.3-.1.3.2.5.1.4-.1h.4v.2l.3.1.4.2.1-.2h.3l.1-.1h.1l.4.1.2.2.1-.1.1-.2h-.1l-.2-.2-.2-.1.1-.2.1-.1v-.2l-.2.1-.1.2-.1-.1.1-.2-.1-.1-.1.1-.3-.1.4-.1.4.1-.2-.2.3-.1.4-.1h.3.2l.1-.3.1.1v.2h.3v.2h.2l.3-.2h.3l.3.2.4.1h.4.3l.2-.2.1-.2.3.1.3.1.3.1.3.2.3.2.1.3v.3.5l.1-.2.1-.1v.3.5.2l.1.2.2.2.2-.1v.3l.1.2v.2l.3.2.3.2.2.2.1.2.1.1h.2l.3-.2v-.1l.1-.2.1-.4v-.7l-.2-.3-.3-.6-.2-.4-.5-.8-.1-.4-.3-.5-.1-.4-.1-.2.1-.6.1-.1.1-.1h-.2l.5-.4-.1-.3-.1-.1h.1l.3-.1v-.2h.1l.2-.1.1-.3.2-.1v-.2l.1-.4.3-.2.1-.1.2-.1v-.2l.1-.3.3-.3.5-.1.3-.2-.1-.1-.3.1.1-.2v-.2l-.3-.1h.2l.3.1.1-.2.1-.2.2.1-.1.4.1-.2v-.2l-.1-.4h-.2l-.2.2-.2.1v-.1h.2l.3-.2.1-.1v-.2l-.1-.2-.4-.2-.3-.1-.3-.2h.3l.1-.1-.5-.5-.2-.2.6.4.1-.1-.1-.2-.2-.1.3.1-.2-.2v-.3l-.1-.3v-.3l.1.3.1.2v.3l.2-.1.1.1.2.2v.2.5l.1-.1.1-.3v-.3l.2-.4v-.2l.2-.2h-.3l-.2-.1-.1-.3.4.1.3-.4.1-.3v-.6l-.2-.1v-.1l.1-.3.1-.2.5-.4.5-.1h.3l.1-.1v-.3l.3.1.1-.1h.2l.3-.1v-.2l-.2-.2.1.1-.1.2h-.2l-.1-.1-.2-.2-.1-.5h-.1v-.3l.1-.5.2-.3.4-.4.2-.2v-.3h.2l.1-.2.1.1.4-.4h.3.1zm-4.1 9h-.1z"/></svg>